:version 1.10
:name ASF
:units
  mass 1
  length 1
  angle deg
:documentation
  ASF file generated by Kaydara
:root
  axis xyz
  order  tx ty tz rx ry rz
  position 0 0 0
  orientation 0 0 0
:bonedata
  begin
    id 1
    name RightUpLegDummy
    direction -0.718183 -0.695806 0.00816078
    length 4.904
    axis 0 0 0 xyz
  end
  begin
    id 2
    name RightUpLeg
    direction -0.0736652 -0.994202 0.0783343
    length 17.4976
    axis -2.72909 -3.00389 -4.00133 xyz
    dof rx ry rz
  end
  begin
    id 3
    name RightLeg
    direction -0.0389037 -0.994596 -0.0962598
    length 16.5821
    axis 3.95836 -18.5909 -4.46993 xyz
    dof rx ry rz
  end
  begin
    id 4
    name RightFoot
    direction -0.311643 -0.412678 0.855906
    length 3.77069
    axis -1.99483 -18.8351 -3.27644 xyz
    dof rx ry rz
  end
  begin
    id 5
    name RightToes
    direction -0.317852 0.0389852 0.947339
    length 3.85082
    axis -2.00228 -18.1713 -3.25211 xyz
    dof rx ry rz
  end
  begin
    id 6
    name SpineDummy
    direction 8.3039e-015 1 4.44677e-016
    length 4.6813
    axis 0 0 0 xyz
  end
  begin
    id 7
    name Spine
    direction -0.000262373 0.999988 0.00493267
    length 10.1015
    axis -0.00246081 0.00062579 0.0150362 xyz
    dof rx ry rz
  end
  begin
    id 8
    name Spine1
    direction 0 0 0
    length 0
    axis -0.00349562 0.000650293 0.0196666 xyz
    dof rx ry rz
  end
  begin
    id 9
    name HEadDummy
    direction -0.000343232 0.999999 0.00123745
    length 3.43865
    axis -0.00349562 0.000650293 0.0196666 xyz
  end
  begin
    id 10
    name HEad
    direction -0.0461221 0.980933 0.188796
    length 5.12695
    axis -0.00351404 -7.04812 0.0199272 xyz
    dof rx ry rz
  end
  begin
    id 11
    name LeftShoulder1Dummy
    direction 0.998904 -0.0399089 -0.0244534
    length 3.5433
    axis -0.00349562 0.000650293 0.0196666 xyz
  end
  begin
    id 12
    name LeftShoulder1
    direction 0.99951 1.64443e-005 0.0312999
    length 4.05031
    axis -0.00349562 0.000650293 0.0196666 xyz
    dof rx ry rz
  end
  begin
    id 13
    name LeftArm
    direction 0.984791 0.0515299 0.165927
    length 12.9126
    axis -64.823 -10.7743 5.20463 xyz
    dof rx ry rz
  end
  begin
    id 14
    name LeftForeArm
    direction 0.984968 0.0534808 0.16425
    length 10.8596
    axis -30.0462 -7.70601 1.87451 xyz
    dof rx ry rz
  end
  begin
    id 15
    name LeftHand
    direction 0.975871 0.0289682 0.216418
    length 6.62295
    axis -20.1348 -6.98077 1.86072 xyz
    dof rx ry rz
  end
  begin
    id 16
    name RightShoulderDummy
    direction -0.998877 -0.0405946 -0.0244307
    length 3.5433
    axis -0.00349562 0.000650293 0.0196666 xyz
  end
  begin
    id 17
    name RightShoulder
    direction -0.998933 -0.0249743 -0.0388558
    length 4.05031
    axis -0.0205316 -4.02113 1.41395 xyz
    dof rx ry rz
  end
  begin
    id 18
    name RightArm
    direction -0.997559 0.068664 0.0127103
    length 12.9638
    axis -67.3882 1.84188 -6.15987 xyz
    dof rx ry rz
  end
  begin
    id 19
    name RightForeArm
    direction -0.991508 0.0912848 0.0926241
    length 10.8312
    axis -22.1975 3.41087 -4.28711 xyz
    dof rx ry rz
  end
  begin
    id 20
    name RightHand
    direction -0.989262 0.0600788 0.133232
    length 6.57864
    axis -12.2911 2.17515 -4.39675 xyz
    dof rx ry rz
  end
  begin
    id 21
    name LeftUpLegDummy
    direction 0.718183 -0.695806 0.00816078
    length 4.904
    axis 0 0 0 xyz
  end
  begin
    id 22
    name LeftUpLeg
    direction 0.0831398 -0.99469 0.0606531
    length 17.4976
    axis -1.71016 2.29552 4.63832 xyz
    dof rx ry rz
  end
  begin
    id 23
    name LeftLeg
    direction 0.0498442 -0.991778 -0.117862
    length 16.5821
    axis 5.13757 15.5727 5.13348 xyz
    dof rx ry rz
  end
  begin
    id 24
    name LeftFoot
    direction 0.269026 -0.433896 0.85986
    length 3.77069
    axis -0.576502 15.6961 4.10267 xyz
    dof rx ry rz
  end
  begin
    id 25
    name LeftToes
    direction 0.277311 0.0251143 0.960452
    length 3.85048
    axis -0.576502 15.6961 4.10267 xyz
    dof rx ry rz
  end
:hierarchy
  begin
    root RightUpLegDummy SpineDummy LeftUpLegDummy
    RightUpLegDummy RightUpLeg
    RightUpLeg RightLeg
    RightLeg RightFoot
    RightFoot RightToes
    SpineDummy Spine
    Spine Spine1
    Spine1 HEadDummy LeftShoulder1Dummy RightShoulderDummy
    HEadDummy HEad
    LeftShoulder1Dummy LeftShoulder1
    LeftShoulder1 LeftArm
    LeftArm LeftForeArm
    LeftForeArm LeftHand
    RightShoulderDummy RightShoulder
    RightShoulder RightArm
    RightArm RightForeArm
    RightForeArm RightHand
    LeftUpLegDummy LeftUpLeg
    LeftUpLeg LeftLeg
    LeftLeg LeftFoot
    LeftFoot LeftToes
  end

:SAMPLES-PER-SECOND 30
:FULLY-SPECIFIED
:DEGREES
93
root  16.4486 38.8746 -39.7601 -2.24884 1.27783 3.38069
RightUpLeg  -23.6839 -11.8795 6.10931
RightLeg  13.2038 3.06801 -2.60573
RightFoot  6.71259 -0.344089 1.71208
RightToes  5.82077e-011 -3.18055e-015 -2.98177e-016
Spine  4.01065 -1.23879 -5.48677
Spine1  5.85033 -2.75003 6.4359
HEad  -1.82179 3.88794 -3.4187
LeftShoulder1  -3.88251e-019 9.70628e-020 -3.87848e-018
LeftArm  -14.2102 40.3734 -66.4094
LeftForeArm  -4.33863 -19.3287 -3.38247
LeftHand  -0.568229 -2.12348 9.44038
RightShoulder  8.11364 10.8634 37.6938
RightArm  3.37465 -46.6438 13.5514
RightForeArm  14.073 7.75992 -4.96776
RightHand  -0.947194 2.25007 -14.2128
LeftUpLeg  4.61269 -3.44619 -10.1039
LeftLeg  15.0682 5.16889 6.40818
LeftFoot  -16.9853 -0.000229426 1.38643
LeftToes  7.79675e-011 9.80247e-012 -3.28897e-011
94
root  16.4316 38.7138 -38.2443 -2.60102 1.71487 2.92836
RightUpLeg  -18.7022 1.64387 0.515413
RightLeg  -0.707681 -8.10339 3.99606
RightFoot  6.90496 -1.08601 6.04001
RightToes  5.82077e-011 -3.18055e-015 -2.98177e-016
Spine  3.44633 -1.52909 -6.11312
Spine1  6.68385 -3.38811 7.95022
HEad  -1.78395 3.90775 -3.25404
LeftShoulder1  -3.88251e-019 9.70628e-020 -3.87848e-018
LeftArm  -13.7863 38.4325 -66.0664
LeftForeArm  -5.27327 -19.6885 -3.03293
LeftHand  -0.641974 -2.79942 9.7497
RightShoulder  8.06012 10.8474 37.4684
RightArm  3.4065 -48.4931 11.1575
RightForeArm  17.541 4.88577 -5.36955
RightHand  -0.83668 2.25051 -12.5588
LeftUpLeg  7.6439 -3.00005 -9.42616
LeftLeg  14.7376 4.37711 6.1682
LeftFoot  -18.6455 -0.0498196 0.0261192
LeftToes  7.79675e-011 9.80247e-012 -3.28897e-011
95
root  16.347 38.4821 -36.644 -3.15816 2.47602 2.55802
RightUpLeg  -16.8124 2.24392 1.23583
RightLeg  -6.01275 -5.70947 4.60763
RightFoot  4.2357 -1.49141 9.41602
RightToes  5.82077e-011 -3.18055e-015 -2.98177e-016
Spine  3.00807 -1.82227 -6.59555
Spine1  7.57202 -3.97912 9.18209
HEad  -1.62202 3.51914 -3.0986
LeftShoulder1  -3.88251e-019 9.70628e-020 -3.87848e-018
LeftArm  -13.0935 37.083 -65.9377
LeftForeArm  -7.0158 -20.2704 -2.64079
LeftHand  -0.73583 -3.48967 10.2701
RightShoulder  8.07662 10.8591 37.5228
RightArm  5.04656 -50.4383 7.63164
RightForeArm  21.0446 3.4157 -5.49277
RightHand  -0.799571 2.68604 -11.3758
LeftUpLeg  10.3879 -2.93771 -8.67467
LeftLeg  15.7812 3.28895 6.37282
LeftFoot  -20.0159 -0.136339 -1.38785
LeftToes  7.79675e-011 9.80247e-012 -3.28897e-011
96
root  16.2045 38.2576 -35.0815 -3.3543 3.19785 1.43188
RightUpLeg  -17.7398 2.72484 2.79527
RightLeg  -1.87327 -6.26879 2.8883
RightFoot  4.10027 -0.71837 4.726
RightToes  5.82077e-011 -3.18055e-015 -2.98177e-016
Spine  2.67181 -2.18553 -5.74892
Spine1  8.38293 -4.5782 10.513
HEad  -1.0862 3.01322 -3.04651
LeftShoulder1  -3.88251e-019 9.70628e-020 -3.87848e-018
LeftArm  -11.4183 36.9412 -65.9717
LeftForeArm  -10.3521 -21.5716 -1.75404
LeftHand  -0.789102 -3.59765 10.8665
RightShoulder  8.14945 10.8845 37.8209
RightArm  7.76841 -52.1539 3.43385
RightForeArm  24.5019 2.82838 -5.40147
RightHand  -0.746804 3.18904 -10.0322
LeftUpLeg  11.75 -1.87041 -6.29916
LeftLeg  18.512 0.809327 6.37389
LeftFoot  -20.6901 -0.267024 -3.1094
LeftToes  7.79675e-011 9.80247e-012 -3.28897e-011
97
root  16.008 37.9288 -33.464 -3.53121 3.93393 -0.342766
RightUpLeg  -20.0868 2.96981 5.05705
RightLeg  6.84995 -7.54747 -0.0753313
RightFoot  6.97683 0.640578 -3.77695
RightToes  5.82077e-011 -3.18055e-015 -2.98177e-016
Spine  2.40262 -2.79817 -4.04714
Spine1  8.5486 -5.15945 11.6622
HEad  0.142839 2.85277 -3.28776
LeftShoulder1  -3.88251e-019 9.70628e-020 -3.87848e-018
LeftArm  -8.67074 38.6381 -66.2007
LeftForeArm  -15.4254 -23.7416 0.133443
LeftHand  -0.782637 -3.24142 11.2242
RightShoulder  8.21244 10.8996 38.0935
RightArm  10.5291 -53.5389 -0.551695
RightForeArm  27.5904 2.55261 -5.33327
RightHand  -0.665047 3.61725 -8.5374
LeftUpLeg  11.1778 0.914459 -1.9139
LeftLeg  24.9088 -4.10158 5.75848
LeftFoot  -21.1958 -0.53699 -6.79835
LeftToes  7.79675e-011 9.80247e-012 -3.28897e-011
98
root  15.82 37.6958 -31.8552 -3.96936 4.63457 -2.86767
RightUpLeg  -21.0423 3.09382 7.77454
RightLeg  13.6267 -7.6505 -2.17579
RightFoot  8.15375 1.49737 -8.18187
RightToes  5.82077e-011 -3.18055e-015 -2.98177e-016
Spine  2.75284 -3.48729 -1.41507
Spine1  7.90471 -5.68181 12.5971
HEad  1.94018 3.03339 -3.87648
LeftShoulder1  -3.88251e-019 9.70628e-020 -3.87848e-018
LeftArm  -6.64503 41.8326 -67.0006
LeftForeArm  -20.2047 -26.0837 2.58944
LeftHand  -0.773067 -3.05549 11.3359
RightShoulder  8.17357 10.8737 37.9626
RightArm  12.6739 -54.766 -3.55564
RightForeArm  29.2259 2.62665 -5.40889
RightHand  -0.576341 3.80049 -7.26931
LeftUpLeg  8.50485 2.97847 3.35918
LeftLeg  34.9427 -8.24431 4.99149
LeftFoot  -18.0059 -0.49609 -10.8344
LeftToes  7.79675e-011 9.80247e-012 -3.28897e-011
99
root  15.6628 37.7023 -30.3054 -4.7423 5.29447 -5.36752
RightUpLeg  -19.9596 1.98893 10.6245
RightLeg  17.7848 -6.75557 -3.16893
RightFoot  4.44219 1.24091 -8.08268
RightToes  5.82077e-011 -3.18055e-015 -2.98177e-016
Spine  3.81156 -3.86464 0.922377
Spine1  6.63034 -5.9585 13.6416
HEad  3.5344 2.9488 -4.47404
LeftShoulder1  -3.88251e-019 9.70628e-020 -3.87848e-018
LeftArm  -7.3059 45.2809 -68.9292
LeftForeArm  -22.3651 -27.8368 4.32769
LeftHand  -0.809359 -3.41773 11.3661
RightShoulder  8.04335 10.8145 37.4602
RightArm  14.036 -55.6923 -5.1769
RightForeArm  28.4411 3.35934 -5.48759
RightHand  -0.493855 3.57045 -6.39395
LeftUpLeg  3.7091 2.95005 7.48792
LeftLeg  46.7101 -9.28683 5.9111
LeftFoot  -7.18763 0.527152 -11.4115
LeftToes  7.79675e-011 9.80247e-012 -3.28897e-011
100
root  15.5445 37.7723 -28.8816 -5.57076 5.95441 -7.09108
RightUpLeg  -17.8075 1.0491 12.6848
RightLeg  20.2133 -6.82068 -3.9225
RightFoot  -0.395748 0.765674 -6.87675
RightToes  5.82077e-011 -3.18055e-015 -2.98177e-016
Spine  4.99623 -3.87152 2.27277
Spine1  5.73388 -5.96891 15.1348
HEad  4.26469 2.14997 -4.52615
LeftShoulder1  -3.88251e-019 9.70628e-020 -3.87848e-018
LeftArm  -9.73559 47.9631 -71.9098
LeftForeArm  -22.7706 -28.7148 4.9497
LeftHand  -0.831439 -3.94344 11.0128
RightShoulder  7.99231 10.7957 37.2521
RightArm  14.2751 -55.5993 -5.10601
RightForeArm  25.719 4.46537 -5.36588
RightHand  -0.447372 3.03055 -6.1566
LeftUpLeg  -2.71955 1.60684 9.57237
LeftLeg  57.5389 -8.94445 8.99691
LeftFoot  6.99326 1.5063 -8.41602
LeftToes  7.79675e-011 9.80247e-012 -3.28897e-011
101
root  15.479 37.8305 -27.5505 -6.16165 6.48013 -7.74222
RightUpLeg  -15.5103 2.13801 13.426
RightLeg  21.4625 -8.68102 -4.86323
RightFoot  -3.07867 0.531105 -5.96318
RightToes  5.82077e-011 -3.18055e-015 -2.98177e-016
Spine  5.44716 -3.75081 3.06839
Spine1  5.98707 -5.78463 16.2843
HEad  4.41875 0.993702 -3.81281
LeftShoulder1  -3.88251e-019 9.70628e-020 -3.87848e-018
LeftArm  -11.9211 49.8978 -74.835
LeftForeArm  -23.5168 -28.6433 4.85165
LeftHand  -0.713781 -3.85302 9.55879
RightShoulder  8.13163 10.8582 37.7928
RightArm  12.9924 -54.0785 -3.11384
RightForeArm  23.1276 5.13973 -5.08349
RightHand  -0.490083 2.6249 -7.04783
LeftUpLeg  -8.99921 0.39965 9.71485
LeftLeg  65.415 -8.68624 13.282
LeftFoot  13.8939 1.29215 -5.12684
LeftToes  7.79675e-011 9.80247e-012 -3.28897e-011
102
root  15.4605 38.0528 -26.1493 -6.30618 6.26382 -7.24084
RightUpLeg  -12.6618 2.53382 13.4807
RightLeg  20.8774 -8.65672 -5.10658
RightFoot  -4.63532 0.38756 -5.02692
RightToes  5.82077e-011 -3.18055e-015 -2.98177e-016
Spine  4.72391 -3.40753 3.74612
Spine1  6.77094 -5.12811 15.5162
HEad  4.91487 0.11653 -2.74817
LeftShoulder1  -3.88251e-019 9.70628e-020 -3.87848e-018
LeftArm  -13.799 51.7984 -76.6709
LeftForeArm  -24.8587 -27.6605 4.0328
LeftHand  -0.452897 -2.84367 6.85836
RightShoulder  8.30706 10.9291 38.4856
RightArm  10.6235 -51.8916 0.504504
RightForeArm  22.3901 5.19004 -4.86759
RightHand  -0.638418 2.77675 -8.98516
LeftUpLeg  -13.8327 0.445163 8.15839
LeftLeg  69.6279 -8.29739 18.2174
LeftFoot  10.9341 0.537706 -2.34955
LeftToes  7.79675e-011 9.80247e-012 -3.28897e-011
103
root  15.5025 38.3029 -24.7207 -5.8346 4.78105 -6.26034
RightUpLeg  -10.0952 1.90312 13.1605
RightLeg  19.991 -6.42342 -4.61971
RightFoot  -6.89371 0.230724 -3.85939
RightToes  5.82077e-011 -3.18055e-015 -2.98177e-016
Spine  3.50744 -2.68424 5.4719
Spine1  6.93387 -3.65763 12.6207
HEad  6.14857 -0.419267 -1.97166
LeftShoulder1  -3.88251e-019 9.70628e-020 -3.87848e-018
LeftArm  -16.8798 54.1996 -77.4729
LeftForeArm  -25.6898 -25.9488 2.30435
LeftHand  -0.215029 -1.41607 4.04491
RightShoulder  8.27194 10.905 38.369
RightArm  8.24251 -50.2551 4.99753
RightForeArm  22.9732 5.56596 -4.82476
RightHand  -0.833275 3.45295 -10.8633
LeftUpLeg  -17.7451 1.74776 5.92327
LeftLeg  70.74 -7.6109 22.358
LeftFoot  4.33295 0.223496 -1.42519
LeftToes  7.79675e-011 9.80247e-012 -3.28897e-011
